# Blender v2.77 (sub 0) OBJ File: ''
# www.blender.org
mtllib crazyflie.mtl
o Cube
v 1.000000 -0.482904 -1.000000
v 1.000000 -0.482904 1.000000
v -1.000000 -0.482904 1.000000
v -1.000000 -0.482904 -1.000000
v 1.000000 0.482904 -0.999999
v 0.999999 0.482904 1.000001
v -1.000000 0.482904 1.000000
v -1.000000 0.482904 -1.000000
v 1.000000 -0.482904 0.000000
v -1.000000 -0.482904 -0.000000
v 1.000000 0.482904 0.000001
v -1.000000 0.482904 -0.000000
v 0.000000 -0.482904 -1.000000
v 0.000000 -0.482904 1.000000
v 0.000000 0.482904 -1.000000
v -0.000001 0.482904 1.000000
v -0.000000 0.482904 0.000000
v 0.000000 -0.482904 -0.000000
v 0.500000 0.482904 0.000000
v 0.500000 -0.482904 -1.000000
v 0.500000 -0.482904 1.000000
v 0.500000 0.482904 -1.000000
v 0.499999 0.482904 1.000000
v 0.500000 -0.482904 -0.000000
v 1.000000 -0.482904 0.500000
v 1.000000 0.482904 0.500001
v -1.000000 -0.482904 0.500000
v -1.000000 0.482904 0.500000
v -0.000000 0.482904 0.500000
v 0.000000 -0.482904 0.500000
v 0.500000 -0.482904 0.500000
v 0.500000 0.482904 0.500000
v -1.000000 -0.482904 -0.500000
v -1.000000 0.482904 -0.500000
v 1.000000 -0.482904 -0.500000
v 1.000000 0.482904 -0.499999
v 0.000000 -0.482904 -0.500000
v 0.000000 0.482904 -0.500000
v 0.500000 0.482904 -0.500000
v 0.500000 -0.482904 -0.500000
v -0.500000 -0.482904 -1.000000
v -0.500000 -0.482904 1.000000
v -0.500000 0.482904 -1.000000
v -0.500000 0.482904 1.000000
v -0.500000 -0.482904 -0.000000
v -0.500000 0.482904 0.000000
v -0.500000 0.482904 0.500000
v -0.500000 -0.482904 0.500000
v -0.500000 -0.482904 -0.500000
v -0.500000 0.482904 -0.500000
v -1.000000 -0.482904 -0.500000
v -1.000000 0.000000 -0.000000
v 0.000000 0.000000 -1.000000
v -0.000000 0.000000 1.000000
v 0.500000 0.000000 1.000000
v 0.500000 0.000000 -1.000000
v -1.000000 0.000000 0.500000
v 1.000000 0.000000 0.500000
v 1.000000 0.000000 -0.500000
v -1.000000 0.000000 -0.500000
v -0.500000 0.000000 -1.000000
v -0.500000 0.000000 1.000000
v 1.000000 0.241452 -1.000000
v 1.000000 0.241452 1.000000
v -1.000000 0.241452 1.000000
v -1.000000 0.241452 -1.000000
v 0.000000 0.241452 -1.000000
v 0.500000 0.241452 -1.000000
v -0.500000 0.241452 -1.000000
v -1.000000 0.241452 -0.000000
v 1.000000 0.241452 0.000000
v -0.000000 0.241452 1.000000
v 0.500000 0.241452 1.000000
v -1.000000 0.241452 0.500000
v 1.000000 0.241452 0.500000
v 1.000000 0.241452 -0.500000
v -1.000000 0.241452 -0.500000
v -0.500000 0.241452 1.000000
v -1.000000 -0.241452 -0.000000
v 1.000000 -0.241452 0.000000
v -0.000000 -0.241452 1.000000
v 0.500000 -0.241452 1.000000
v -1.000000 -0.241452 0.500000
v 1.000000 -0.241452 0.500000
v 1.000000 -0.241452 -0.500000
v -1.000000 -0.241452 -0.500000
v -0.500000 -0.241452 1.000000
v 1.000000 -0.241452 -1.000000
v 1.000000 -0.241452 1.000000
v -1.000000 -0.241452 1.000000
v -1.000000 -0.241452 -1.000000
v 0.000000 -0.241452 -1.000000
v 0.500000 -0.241452 -1.000000
v -0.500000 -0.241452 -1.000000
v 2.621319 -0.000000 3.121321
v 3.121319 -0.000000 2.621321
v 3.121319 0.241451 3.121321
v 2.621319 0.241451 3.121321
v 3.121319 0.241451 2.621321
v 2.621319 -0.241452 3.121321
v 3.121319 -0.241452 2.621321
v 3.121319 -0.241452 3.121321
v -1.000000 0.000000 -0.500000
v -0.500000 0.000000 -1.000000
v -1.000000 0.241452 -1.000000
v -0.500000 0.241452 -1.000000
v -1.000000 0.241452 -0.500000
v -1.000000 -0.241452 -0.500000
v -1.000000 -0.241452 -1.000000
v -0.500000 -0.241452 -1.000000
v 3.121319 -0.000000 3.121321
v 2.621319 -0.000000 3.121321
v 3.121319 -0.000000 2.621321
v 3.121319 0.241451 3.121321
v 2.621319 0.241451 3.121321
v 3.121319 0.241451 2.621321
v 2.621319 -0.241452 3.121321
v 3.121319 -0.241452 2.621321
v 3.121319 -0.241452 3.121321
v -3.121319 0.000000 -3.121321
v -3.121319 0.000000 -2.621321
v -2.621319 0.000000 -3.121321
v -3.121319 0.241452 -3.121321
v -2.621319 0.241452 -3.121321
v -3.121320 0.241452 -2.621321
v -3.121319 -0.241452 -2.621321
v -3.121319 -0.241452 -3.121321
v -2.621319 -0.241452 -3.121321
v 3.121321 -0.000000 -3.121320
v 2.621321 -0.000000 -3.121320
v 3.121321 -0.000000 -2.621320
v 3.121321 0.241452 -3.121319
v 2.621321 0.241452 -3.121320
v 3.121321 0.241452 -2.621319
v 3.121321 -0.241452 -2.621320
v 3.121321 -0.241452 -3.121320
v 2.621321 -0.241452 -3.121320
v -3.121321 -0.000000 3.121320
v -3.121321 -0.000000 2.621320
v -2.621321 -0.000000 3.121320
v -3.121321 0.241451 3.121320
v -3.121321 0.241451 2.621320
v -2.621321 0.241451 3.121320
v -3.121321 -0.241452 2.621320
v -2.621321 -0.241452 3.121320
v -3.121321 -0.241452 3.121320
v -3.088214 0.230898 -4.079792
v -3.283305 0.230898 -4.060577
v -3.470898 0.230898 -4.003672
v -3.643785 0.230898 -3.911262
v -3.795321 0.230898 -3.786899
v -3.919684 0.230898 -3.635362
v -4.012094 0.230898 -3.462475
v -4.069000 0.230898 -3.274882
v -4.088215 0.230898 -3.079792
v -4.069000 0.230898 -2.884702
v -4.012094 0.230898 -2.697109
v -3.919684 0.230898 -2.524222
v -3.795321 0.230898 -2.372685
v -3.643785 0.230898 -2.248322
v -3.470898 0.230898 -2.155912
v -3.283304 0.230898 -2.099007
v -3.088214 0.230898 -2.079792
v -2.893124 0.230898 -2.099007
v -2.705531 0.230898 -2.155913
v -2.532644 0.230898 -2.248323
v -2.381107 0.230898 -2.372686
v -2.256744 0.230898 -2.524222
v -2.164335 0.230898 -2.697109
v -2.107429 0.230898 -2.884702
v -2.088214 0.230898 -3.079793
v -2.107429 0.230898 -3.274883
v -2.164335 0.230898 -3.462476
v -2.256745 0.230898 -3.635363
v -2.381109 0.230898 -3.786900
v -2.532645 0.230898 -3.911262
v -2.705532 0.230898 -4.003673
v -2.893126 0.230898 -4.060577
v -3.088214 0.470897 -4.079792
v -3.283305 0.470897 -4.060577
v -3.470898 0.470897 -4.003672
v -3.643785 0.470897 -3.911262
v -3.795321 0.470897 -3.786899
v -3.919684 0.470897 -3.635362
v -4.012094 0.470897 -3.462475
v -4.069000 0.470897 -3.274882
v -4.088215 0.470897 -3.079792
v -4.069000 0.470897 -2.884702
v -4.012094 0.470897 -2.697109
v -3.919684 0.470897 -2.524222
v -3.795321 0.470897 -2.372685
v -3.643785 0.470897 -2.248322
v -3.470898 0.470897 -2.155912
v -3.283304 0.470897 -2.099007
v -3.088214 0.470897 -2.079792
v -2.893124 0.470897 -2.099007
v -2.705531 0.470897 -2.155913
v -2.532644 0.470897 -2.248323
v -2.381107 0.470897 -2.372686
v -2.256744 0.470897 -2.524222
v -2.164335 0.470897 -2.697109
v -2.107429 0.470897 -2.884702
v -2.088214 0.470897 -3.079793
v -2.107429 0.470897 -3.274883
v -2.164335 0.470897 -3.462476
v -2.256745 0.470897 -3.635363
v -2.381109 0.470897 -3.786900
v -2.532645 0.470897 -3.911262
v -2.705532 0.470897 -4.003673
v -2.893126 0.470897 -4.060577
v -3.022969 0.240943 2.061355
v -3.218059 0.240943 2.080570
v -3.405652 0.240943 2.137475
v -3.578539 0.240943 2.229885
v -3.730075 0.240943 2.354248
v -3.854438 0.240943 2.505785
v -3.946848 0.240943 2.678671
v -4.003754 0.240943 2.866265
v -4.022968 0.240943 3.061355
v -4.003754 0.240943 3.256445
v -3.946848 0.240943 3.444038
v -3.854438 0.240943 3.616925
v -3.730075 0.240943 3.768462
v -3.578539 0.240943 3.892824
v -3.405652 0.240943 3.985235
v -3.218059 0.240943 4.042141
v -3.022968 0.240943 4.061356
v -2.827878 0.240943 4.042140
v -2.640285 0.240943 3.985234
v -2.467398 0.240943 3.892824
v -2.315861 0.240943 3.768461
v -2.191499 0.240943 3.616925
v -2.099089 0.240943 3.444038
v -2.042183 0.240943 3.256444
v -2.022969 0.240943 3.061354
v -2.042183 0.240943 2.866263
v -2.099089 0.240943 2.678670
v -2.191499 0.240943 2.505784
v -2.315863 0.240943 2.354247
v -2.467399 0.240943 2.229885
v -2.640286 0.240943 2.137475
v -2.827880 0.240943 2.080569
v 3.113736 0.242496 2.085067
v 2.918646 0.242496 2.104282
v 2.731052 0.242496 2.161188
v 2.558166 0.242496 2.253598
v 2.406629 0.242496 2.377960
v 2.282266 0.242496 2.529497
v 2.189856 0.242496 2.702384
v 2.132951 0.242496 2.889977
v 2.113736 0.242496 3.085067
v 2.132951 0.242496 3.280158
v 2.189856 0.242496 3.467751
v 2.282266 0.242496 3.640637
v 2.406629 0.242496 3.792174
v 2.558166 0.242496 3.916537
v 2.731053 0.242496 4.008947
v 2.918646 0.242496 4.065853
v 3.113736 0.242496 4.085067
v 3.308827 0.242496 4.065853
v 3.496420 0.242496 4.008946
v 3.669307 0.242496 3.916537
v 3.820843 0.242496 3.792174
v 3.945206 0.242496 3.640637
v 4.037616 0.242496 3.467750
v 4.094522 0.242496 3.280157
v 4.113736 0.242496 3.085066
v 4.094521 0.242496 2.889976
v 4.037615 0.242496 2.702383
v 3.945205 0.242496 2.529496
v 3.820842 0.242496 2.377960
v 3.669305 0.242496 2.253597
v 3.496418 0.242496 2.161187
v 3.308825 0.242496 2.104282
v 3.113736 0.492496 2.085067
v 2.918646 0.492496 2.104282
v 2.731052 0.492496 2.161188
v 2.558166 0.492496 2.253598
v 2.406629 0.492496 2.377960
v 2.282266 0.492496 2.529497
v 2.189856 0.492496 2.702384
v 2.132951 0.492496 2.889977
v 2.113736 0.492496 3.085067
v 2.132951 0.492496 3.280158
v 2.189856 0.492496 3.467751
v 2.282266 0.492496 3.640637
v 2.406629 0.492496 3.792174
v 2.558166 0.492496 3.916537
v 2.731053 0.492496 4.008947
v 2.918646 0.492496 4.065853
v 3.113736 0.492496 4.085067
v 3.308827 0.492496 4.065853
v 3.496420 0.492496 4.008946
v 3.669307 0.492496 3.916537
v 3.820843 0.492496 3.792174
v 3.945206 0.492496 3.640637
v 4.037616 0.492496 3.467750
v 4.094522 0.492496 3.280157
v 4.113736 0.492496 3.085066
v 4.094521 0.492496 2.889976
v 4.037615 0.492496 2.702383
v 3.945205 0.492496 2.529496
v 3.820842 0.492496 2.377960
v 3.669305 0.492496 2.253597
v 3.496418 0.492496 2.161187
v 3.308825 0.492496 2.104282
v 3.093752 0.246564 -4.086606
v 2.898662 0.246564 -4.067391
v 2.711069 0.246564 -4.010486
v 2.538182 0.246564 -3.918075
v 2.386646 0.246564 -3.793712
v 2.262283 0.246564 -3.642176
v 2.169873 0.246564 -3.469289
v 2.112967 0.246564 -3.281696
v 2.093752 0.246564 -3.086606
v 2.112967 0.246564 -2.891515
v 2.169873 0.246564 -2.703922
v 2.262283 0.246564 -2.531035
v 2.386646 0.246564 -2.379499
v 2.538182 0.246564 -2.255136
v 2.711069 0.246564 -2.162726
v 2.898662 0.246564 -2.105820
v 3.093753 0.246564 -2.086606
v 3.288843 0.246564 -2.105820
v 3.476436 0.246564 -2.162726
v 3.649323 0.246564 -2.255136
v 3.800860 0.246564 -2.379499
v 3.925222 0.246564 -2.531036
v 4.017632 0.246564 -2.703923
v 4.074538 0.246564 -2.891516
v 4.093752 0.246564 -3.086607
v 4.074537 0.246564 -3.281697
v 4.017632 0.246564 -3.469290
v 3.925221 0.246564 -3.642177
v 3.800858 0.246564 -3.793713
v 3.649322 0.246564 -3.918076
v 3.476434 0.246564 -4.010486
v 3.288841 0.246564 -4.067391
v 3.093752 0.496564 -4.086606
v 2.898662 0.496564 -4.067391
v 2.711069 0.496564 -4.010486
v 2.538182 0.496564 -3.918075
v 2.386646 0.496564 -3.793712
v 2.262283 0.496564 -3.642176
v 2.169873 0.496564 -3.469289
v 2.112967 0.496564 -3.281696
v 2.093752 0.496564 -3.086606
v 2.112967 0.496564 -2.891515
v 2.169873 0.496564 -2.703922
v 2.262283 0.496564 -2.531035
v 2.386646 0.496564 -2.379499
v 2.538182 0.496564 -2.255136
v 2.711069 0.496564 -2.162726
v 2.898662 0.496564 -2.105820
v 3.093753 0.496564 -2.086606
v 3.288843 0.496564 -2.105820
v 3.476436 0.496564 -2.162726
v 3.649323 0.496564 -2.255136
v 3.800860 0.496564 -2.379499
v 3.925222 0.496564 -2.531036
v 4.017632 0.496564 -2.703923
v 4.074538 0.496564 -2.891516
v 4.093752 0.496564 -3.086607
v 4.074537 0.496564 -3.281697
v 4.017632 0.496564 -3.469290
v 3.925221 0.496564 -3.642177
v 3.800858 0.496564 -3.793713
v 3.649322 0.496564 -3.918076
v 3.476434 0.496564 -4.010486
v 3.288841 0.496564 -4.067391
v 1.500000 0.000000 0.000000
v 1.500000 0.000000 0.500000
v 1.500000 0.000000 -0.500000
v 1.500000 0.241452 0.000001
v 1.500000 0.241452 0.500000
v 1.500000 0.241452 -0.499999
v 1.500000 -0.241452 0.000000
v 1.500000 -0.241452 0.500000
v 1.500000 -0.241452 -0.500000
v -3.218059 0.490943 2.080570
v -3.022969 0.490943 2.061355
v -3.405652 0.490943 2.137475
v -3.578539 0.490943 2.229885
v -3.730075 0.490943 2.354248
v -3.854438 0.490943 2.505785
v -3.946848 0.490943 2.678671
v -4.003754 0.490943 2.866265
v -4.022968 0.490943 3.061355
v -4.003754 0.490943 3.256445
v -3.946848 0.490943 3.444038
v -3.854438 0.490943 3.616925
v -3.730075 0.490943 3.768462
v -3.578539 0.490943 3.892824
v -3.405652 0.490943 3.985235
v -3.218059 0.490943 4.042141
v -3.022968 0.490943 4.061356
v -2.827878 0.490943 4.042140
v -2.640285 0.490943 3.985234
v -2.467398 0.490943 3.892824
v -2.315861 0.490943 3.768461
v -2.191499 0.490943 3.616925
v -2.099089 0.490943 3.444038
v -2.042183 0.490943 3.256444
v -2.022969 0.490943 3.061354
v -2.042183 0.490943 2.866263
v -2.099089 0.490943 2.678670
v -2.191499 0.490943 2.505784
v -2.315863 0.490943 2.354247
v -2.467399 0.490943 2.229885
v -2.640286 0.490943 2.137475
v -2.827880 0.490943 2.080569
vn 0.000000 -1.000000 -0.000000
vn 0.000000 1.000000 0.000000
vn 1.000000 0.000000 0.000000
vn -0.000000 0.000000 1.000000
vn -1.000000 -0.000000 -0.000000
vn 0.000000 0.000000 -1.000000
vn 0.707100 0.000000 0.707100
vn -0.707100 -0.000000 0.707100
vn -0.707100 -0.000000 -0.707100
vn 0.707100 0.000000 -0.707100
vn 0.773000 0.000000 0.634400
vn -0.995200 0.000000 -0.098000
vn 0.881900 0.000000 0.471400
vn -0.995200 0.000000 0.098000
vn 0.956900 0.000000 0.290300
vn -0.956900 0.000000 0.290300
vn 0.995200 0.000000 0.098000
vn -0.881900 0.000000 0.471400
vn 0.995200 0.000000 -0.098000
vn -0.773000 0.000000 0.634400
vn 0.956900 0.000000 -0.290300
vn -0.634400 0.000000 0.773000
vn 0.881900 0.000000 -0.471400
vn -0.471400 0.000000 0.881900
vn -0.098000 0.000000 -0.995200
vn 0.773000 0.000000 -0.634400
vn -0.290300 0.000000 0.956900
vn -0.290300 0.000000 -0.956900
vn 0.634400 0.000000 -0.773000
vn -0.098000 0.000000 0.995200
vn -0.471400 0.000000 -0.881900
vn 0.471400 0.000000 -0.881900
vn 0.098000 0.000000 0.995200
vn -0.634400 0.000000 -0.773000
vn 0.290300 0.000000 -0.956900
vn 0.290300 0.000000 0.956900
vn -0.773000 0.000000 -0.634400
vn 0.098000 0.000000 -0.995200
vn 0.471400 0.000000 0.881900
vn -0.881900 0.000000 -0.471400
vn 0.634400 0.000000 0.773000
vn -0.956900 0.000000 -0.290300
usemtl Material
s off
f 48//1 42//1 3//1 27//1
f 47//2 28//2 7//2 44//2
f 75//3 26//3 6//3 64//3
f 78//4 44//4 7//4 65//4
f 77//5 34//5 8//5 66//5
f 94//6 41//6 4//6 91//6
f 74//5 28//5 12//5 70//5
f 76//3 36//3 11//3 71//3
f 50//2 34//2 12//2 46//2
f 49//1 45//1 10//1 33//1
f 40//1 24//1 18//1 37//1
f 39//2 38//2 17//2 19//2
f 93//6 20//6 13//6 92//6
f 73//4 23//4 16//4 72//4
f 32//2 29//2 16//2 23//2
f 31//1 21//1 14//1 30//1
f 25//1 2//1 21//1 31//1
f 26//2 32//2 23//2 6//2
f 64//4 6//4 23//4 73//4
f 88//6 1//6 20//6 93//6
f 36//2 39//2 19//2 11//2
f 35//1 9//1 24//1 40//1
f 11//2 19//2 32//2 26//2
f 9//1 25//1 31//1 24//1
f 24//1 31//1 30//1 18//1
f 19//2 17//2 29//2 32//2
f 65//5 7//5 28//5 74//5
f 71//3 11//3 26//3 75//3
f 46//2 12//2 28//2 47//2
f 45//1 48//1 27//1 10//1
f 1//1 35//1 40//1 20//1
f 5//2 22//2 39//2 36//2
f 22//2 15//2 38//2 39//2
f 20//1 40//1 37//1 13//1
f 41//1 49//1 33//1 4//1
f 43//2 8//2 34//2 50//2
f 63//3 5//3 36//3 76//3
f 70//5 12//5 34//5 77//5
f 15//2 43//2 50//2 38//2
f 13//1 37//1 49//1 41//1
f 18//1 30//1 48//1 45//1
f 17//2 46//2 47//2 29//2
f 37//1 18//1 45//1 49//1
f 38//2 50//2 46//2 17//2
f 92//6 13//6 41//6 94//6
f 72//4 16//4 44//4 78//4
f 29//2 47//2 44//2 16//2
f 30//1 14//1 42//1 48//1
f 81//4 54//4 62//4 87//4
f 67//6 53//6 61//6 69//6
f 79//5 52//5 60//5 86//5
f 68//2 63//2 132//2 133//2
f 85//6 59//6 373//6 379//6
f 87//7 62//7 140//7 145//7
f 63//2 76//2 134//2 132//2
f 73//8 55//8 95//8 98//8
f 82//4 55//4 54//4 81//4
f 68//6 56//6 53//6 67//6
f 59//6 76//6 376//6 373//6
f 83//5 57//5 52//5 79//5
f 91//4 86//4 108//4 109//4
f 95//4 100//4 117//4 112//4
f 74//9 57//9 139//9 142//9
f 55//8 82//8 100//8 95//8
f 43//6 69//6 66//6 8//6
f 22//6 68//6 67//6 15//6
f 5//6 63//6 68//6 22//6
f 15//6 67//6 69//6 43//6
f 54//4 72//4 78//4 62//4
f 52//5 70//5 77//5 60//5
f 76//7 59//7 131//7 134//7
f 58//4 84//4 378//4 372//4
f 83//1 90//1 146//1 144//1
f 84//10 58//10 96//10 101//10
f 55//4 73//4 72//4 54//4
f 80//1 85//1 379//1 377//1
f 57//5 74//5 70//5 52//5
f 99//4 97//4 114//4 116//4
f 65//2 74//2 142//2 141//2
f 89//1 84//1 101//1 102//1
f 25//3 84//3 89//3 2//3
f 42//4 87//4 90//4 3//4
f 33//5 86//5 91//5 4//5
f 27//5 83//5 79//5 10//5
f 35//3 85//3 80//3 9//3
f 21//4 82//4 81//4 14//4
f 2//4 89//4 82//4 21//4
f 3//5 90//5 83//5 27//5
f 9//3 80//3 84//3 25//3
f 1//3 88//3 85//3 35//3
f 10//5 79//5 86//5 33//5
f 14//4 81//4 87//4 42//4
f 53//6 92//6 94//6 61//6
f 85//1 88//1 136//1 135//1
f 56//6 93//6 92//6 53//6
f 61//4 94//4 110//4 104//4
f 94//4 91//4 109//4 110//4
f 97//4 98//4 115//4 114//4
f 60//4 77//4 107//4 103//4
f 86//4 60//4 103//4 108//4
f 75//2 64//2 97//2 99//2
f 64//2 73//2 98//2 97//2
f 58//10 75//10 99//10 96//10
f 82//1 89//1 102//1 100//1
f 103//8 107//8 125//8 121//8
f 105//2 106//2 124//2 123//2
f 108//8 103//8 121//8 126//8
f 110//1 109//1 127//1 128//1
f 119//4 111//4 112//4 117//4
f 118//3 113//3 111//3 119//3
f 111//4 114//4 115//4 112//4
f 113//3 116//3 114//3 111//3
f 98//4 95//4 112//4 115//4
f 69//4 61//4 104//4 106//4
f 33//4 86//4 108//4 51//4
f 101//4 96//4 113//4 118//4
f 77//4 66//4 105//4 107//4
f 96//4 99//4 116//4 113//4
f 102//4 101//4 118//4 119//4
f 100//4 102//4 119//4 117//4
f 66//4 69//4 106//4 105//4
f 124//6 122//6 120//6 123//6
f 126//5 121//5 120//5 127//5
f 121//5 125//5 123//5 120//5
f 122//6 128//6 127//6 120//6
f 109//1 108//1 126//1 127//1
f 107//2 105//2 123//2 125//2
f 106//10 104//10 122//10 124//10
f 104//10 110//10 128//10 122//10
f 136//3 129//3 131//3 135//3
f 132//6 129//6 130//6 133//6
f 129//3 132//3 134//3 131//3
f 129//6 136//6 137//6 130//6
f 59//7 85//7 135//7 131//7
f 56//9 68//9 133//9 130//9
f 93//9 56//9 130//9 137//9
f 88//1 93//1 137//1 136//1
f 146//5 138//5 139//5 144//5
f 145//4 140//4 138//4 146//4
f 138//5 141//5 142//5 139//5
f 140//4 143//4 141//4 138//4
f 90//1 87//1 145//1 146//1
f 62//7 78//7 143//7 140//7
f 57//9 83//9 144//9 139//9
f 78//2 65//2 141//2 143//2
f 148//1 147//1 178//1 177//1 176//1 175//1 174//1 173//1 172//1 171//1 170//1 169//1 168//1 167//1 166//1 165//1 164//1 163//1 162//1 161//1 160//1 159//1 158//1 157//1 156//1 155//1 154//1 153//1 152//1 151//1 150//1 149//1
f 180//2 181//2 182//2 183//2 184//2 185//2 186//2 187//2 188//2 189//2 190//2 191//2 192//2 193//2 194//2 195//2 196//2 197//2 198//2 199//2 200//2 201//2 202//2 203//2 204//2 205//2 206//2 207//2 208//2 209//2 210//2 179//2
f 167//11 168//11 200//11 199//11
f 154//12 155//12 187//12 186//12
f 168//13 169//13 201//13 200//13
f 155//14 156//14 188//14 187//14
f 169//15 170//15 202//15 201//15
f 156//16 157//16 189//16 188//16
f 170//17 171//17 203//17 202//17
f 157//18 158//18 190//18 189//18
f 171//19 172//19 204//19 203//19
f 158//20 159//20 191//20 190//20
f 172//21 173//21 205//21 204//21
f 159//22 160//22 192//22 191//22
f 173//23 174//23 206//23 205//23
f 160//24 161//24 193//24 192//24
f 147//25 148//25 180//25 179//25
f 174//26 175//26 207//26 206//26
f 161//27 162//27 194//27 193//27
f 148//28 149//28 181//28 180//28
f 175//29 176//29 208//29 207//29
f 162//30 163//30 195//30 194//30
f 149//31 150//31 182//31 181//31
f 176//32 177//32 209//32 208//32
f 163//33 164//33 196//33 195//33
f 150//34 151//34 183//34 182//34
f 177//35 178//35 210//35 209//35
f 164//36 165//36 197//36 196//36
f 151//37 152//37 184//37 183//37
f 178//38 147//38 179//38 210//38
f 165//39 166//39 198//39 197//39
f 152//40 153//40 185//40 184//40
f 166//41 167//41 199//41 198//41
f 153//42 154//42 186//42 185//42
f 212//1 211//1 242//1 241//1 240//1 239//1 238//1 237//1 236//1 235//1 234//1 233//1 232//1 231//1 230//1 229//1 228//1 227//1 226//1 225//1 224//1 223//1 222//1 221//1 220//1 219//1 218//1 217//1 216//1 215//1 214//1 213//1
f 244//1 243//1 274//1 273//1 272//1 271//1 270//1 269//1 268//1 267//1 266//1 265//1 264//1 263//1 262//1 261//1 260//1 259//1 258//1 257//1 256//1 255//1 254//1 253//1 252//1 251//1 250//1 249//1 248//1 247//1 246//1 245//1
f 276//2 277//2 278//2 279//2 280//2 281//2 282//2 283//2 284//2 285//2 286//2 287//2 288//2 289//2 290//2 291//2 292//2 293//2 294//2 295//2 296//2 297//2 298//2 299//2 300//2 301//2 302//2 303//2 304//2 305//2 306//2 275//2
f 264//13 265//13 297//13 296//13
f 251//14 252//14 284//14 283//14
f 265//15 266//15 298//15 297//15
f 252//16 253//16 285//16 284//16
f 266//17 267//17 299//17 298//17
f 253//18 254//18 286//18 285//18
f 267//19 268//19 300//19 299//19
f 254//20 255//20 287//20 286//20
f 268//21 269//21 301//21 300//21
f 255//22 256//22 288//22 287//22
f 269//23 270//23 302//23 301//23
f 256//24 257//24 289//24 288//24
f 243//25 244//25 276//25 275//25
f 270//26 271//26 303//26 302//26
f 257//27 258//27 290//27 289//27
f 244//28 245//28 277//28 276//28
f 271//29 272//29 304//29 303//29
f 258//30 259//30 291//30 290//30
f 245//31 246//31 278//31 277//31
f 272//32 273//32 305//32 304//32
f 259//33 260//33 292//33 291//33
f 246//34 247//34 279//34 278//34
f 273//35 274//35 306//35 305//35
f 260//36 261//36 293//36 292//36
f 247//37 248//37 280//37 279//37
f 274//38 243//38 275//38 306//38
f 261//39 262//39 294//39 293//39
f 248//40 249//40 281//40 280//40
f 262//41 263//41 295//41 294//41
f 249//42 250//42 282//42 281//42
f 263//11 264//11 296//11 295//11
f 250//12 251//12 283//12 282//12
f 308//1 307//1 338//1 337//1 336//1 335//1 334//1 333//1 332//1 331//1 330//1 329//1 328//1 327//1 326//1 325//1 324//1 323//1 322//1 321//1 320//1 319//1 318//1 317//1 316//1 315//1 314//1 313//1 312//1 311//1 310//1 309//1
f 340//2 341//2 342//2 343//2 344//2 345//2 346//2 347//2 348//2 349//2 350//2 351//2 352//2 353//2 354//2 355//2 356//2 357//2 358//2 359//2 360//2 361//2 362//2 363//2 364//2 365//2 366//2 367//2 368//2 369//2 370//2 339//2
f 326//41 327//41 359//41 358//41
f 313//42 314//42 346//42 345//42
f 327//11 328//11 360//11 359//11
f 314//12 315//12 347//12 346//12
f 328//13 329//13 361//13 360//13
f 315//14 316//14 348//14 347//14
f 329//15 330//15 362//15 361//15
f 316//16 317//16 349//16 348//16
f 330//17 331//17 363//17 362//17
f 317//18 318//18 350//18 349//18
f 331//19 332//19 364//19 363//19
f 318//20 319//20 351//20 350//20
f 332//21 333//21 365//21 364//21
f 319//22 320//22 352//22 351//22
f 333//23 334//23 366//23 365//23
f 320//24 321//24 353//24 352//24
f 307//25 308//25 340//25 339//25
f 334//26 335//26 367//26 366//26
f 321//27 322//27 354//27 353//27
f 308//28 309//28 341//28 340//28
f 335//29 336//29 368//29 367//29
f 322//30 323//30 355//30 354//30
f 309//31 310//31 342//31 341//31
f 336//32 337//32 369//32 368//32
f 323//33 324//33 356//33 355//33
f 310//34 311//34 343//34 342//34
f 337//35 338//35 370//35 369//35
f 324//36 325//36 357//36 356//36
f 311//37 312//37 344//37 343//37
f 338//38 307//38 339//38 370//38
f 325//39 326//39 358//39 357//39
f 312//40 313//40 345//40 344//40
f 377//3 371//3 372//3 378//3
f 379//3 373//3 371//3 377//3
f 371//3 374//3 375//3 372//3
f 373//3 376//3 374//3 371//3
f 76//2 71//2 374//2 376//2
f 84//1 80//1 377//1 378//1
f 75//4 58//4 372//4 375//4
f 71//2 75//2 375//2 374//2
f 380//2 382//2 383//2 384//2 385//2 386//2 387//2 388//2 389//2 390//2 391//2 392//2 393//2 394//2 395//2 396//2 397//2 398//2 399//2 400//2 401//2 402//2 403//2 404//2 405//2 406//2 407//2 408//2 409//2 410//2 411//2 381//2
f 234//17 235//17 404//17 403//17
f 221//18 222//18 391//18 390//18
f 235//19 236//19 405//19 404//19
f 222//20 223//20 392//20 391//20
f 236//21 237//21 406//21 405//21
f 223//22 224//22 393//22 392//22
f 237//23 238//23 407//23 406//23
f 224//24 225//24 394//24 393//24
f 211//25 212//25 380//25 381//25
f 238//26 239//26 408//26 407//26
f 225//27 226//27 395//27 394//27
f 212//28 213//28 382//28 380//28
f 239//29 240//29 409//29 408//29
f 226//30 227//30 396//30 395//30
f 213//31 214//31 383//31 382//31
f 240//32 241//32 410//32 409//32
f 227//33 228//33 397//33 396//33
f 214//34 215//34 384//34 383//34
f 241//35 242//35 411//35 410//35
f 228//36 229//36 398//36 397//36
f 215//37 216//37 385//37 384//37
f 242//38 211//38 381//38 411//38
f 229//39 230//39 399//39 398//39
f 216//40 217//40 386//40 385//40
f 230//41 231//41 400//41 399//41
f 217//42 218//42 387//42 386//42
f 231//11 232//11 401//11 400//11
f 218//12 219//12 388//12 387//12
f 232//13 233//13 402//13 401//13
f 219//14 220//14 389//14 388//14
f 233//15 234//15 403//15 402//15
f 220//16 221//16 390//16 389//16
